<mxfile host="app.diagrams.net" agent="Mozilla/5.0 (Windows NT 10.0; Win64; x64) AppleWebKit/537.36 (KHTML, like Gecko) Chrome/134.0.0.0 Safari/537.36" version="26.1.1">
  <diagram name="Strona-1" id="WkH96r3GXqXLyxKKmg4C">
    <mxGraphModel dx="568" dy="290" grid="1" gridSize="10" guides="1" tooltips="1" connect="1" arrows="1" fold="1" page="1" pageScale="1" pageWidth="827" pageHeight="1169" math="0" shadow="0">
      <root>
        <mxCell id="0" />
        <mxCell id="1" parent="0" />
        <mxCell id="XhGG8jW9s6c4KRo_9grd-1" value="" style="rounded=0;whiteSpace=wrap;html=1;fillColor=none;" vertex="1" parent="1">
          <mxGeometry x="400" y="280" width="70" height="80" as="geometry" />
        </mxCell>
        <mxCell id="XhGG8jW9s6c4KRo_9grd-2" value="FAN speed" style="text;html=1;align=center;verticalAlign=middle;whiteSpace=wrap;rounded=0;" vertex="1" parent="1">
          <mxGeometry x="400" y="280" width="70" height="30" as="geometry" />
        </mxCell>
        <mxCell id="XhGG8jW9s6c4KRo_9grd-3" value="+5V" style="text;html=1;align=center;verticalAlign=middle;whiteSpace=wrap;rounded=0;" vertex="1" parent="1">
          <mxGeometry x="405" y="305" width="60" height="30" as="geometry" />
        </mxCell>
        <mxCell id="XhGG8jW9s6c4KRo_9grd-4" value="GND" style="text;html=1;align=center;verticalAlign=middle;whiteSpace=wrap;rounded=0;" vertex="1" parent="1">
          <mxGeometry x="407" y="330" width="56" height="30" as="geometry" />
        </mxCell>
        <mxCell id="XhGG8jW9s6c4KRo_9grd-5" value="&lt;font&gt;FAN&lt;/font&gt;" style="text;html=1;align=center;verticalAlign=middle;whiteSpace=wrap;rounded=0;fontSize=16;" vertex="1" parent="1">
          <mxGeometry x="384" y="250" width="60" height="30" as="geometry" />
        </mxCell>
      </root>
    </mxGraphModel>
  </diagram>
</mxfile>
